<svg width="18" height="18" viewBox="0 0 18 18" fill="none" xmlns="http://www.w3.org/2000/svg">
<g clip-path="url(#clip0_2339_1952)">
<path d="M17.67 8.29002L13.38 4.00002C12.99 3.61002 12.36 3.61002 11.97 4.00002C11.58 4.39002 11.58 5.02002 11.97 5.41002L14.55 7.99002H6C5.45 7.99002 5 8.44002 5 8.99002C5 9.54002 5.45 9.99002 6 9.99002H14.55L11.97 12.57C11.58 12.96 11.58 13.59 11.97 13.98C12.17 14.18 12.42 14.27 12.68 14.27C12.94 14.27 13.19 14.17 13.39 13.98L17.68 9.69002C18.07 9.30002 18.07 8.67002 17.68 8.28002L17.67 8.29002Z" fill="#0153cc"/>
<path d="M9 16H2V2H9C9.55 2 10 1.55 10 1C10 0.45 9.55 0 9 0H2C0.9 0 0 0.9 0 2V16C0 17.1 0.9 18 2 18H9C9.55 18 10 17.55 10 17C10 16.45 9.55 16 9 16Z" fill="#0153cc"/>
</g>
<defs>
<clipPath id="clip0_2339_1952">
<rect width="18" height="18" fill="white"/>
</clipPath>
</defs>
</svg>
